<svg viewBox="0 0 800 140" role="img" aria-labelledby="svg-title-mic svg-desc-mic" style="display:block;width:100%;height:auto;max-width:800px;margin:18px auto;" xmlns="http://www.w3.org/2000/svg">
      <title id="svg-title-mic">П'ять кроків голосового введення</title>
      <desc id="svg-desc-mic">Натисни кнопку мікрофона, скажи речення, зупини запис, прочитай, що вийшло, і виправ помилки.</desc>
      <rect x="20" y="20" width="136" height="100" rx="10" fill="#F0F4F8" stroke="#0033A0" stroke-width="2"/>
      <text x="88" y="62" font-family="sans-serif" font-size="30" text-anchor="middle">🎙️</text>
      <text x="88" y="100" font-family="sans-serif" font-size="17" font-weight="bold" fill="#1A1A1A" text-anchor="middle">1. Натисни</text>
      <path d="M 158 70 H 170" stroke="#0033A0" stroke-width="3"/><polygon points="170,64 176,70 170,76" fill="#0033A0"/>
      <rect x="176" y="20" width="136" height="100" rx="10" fill="#F0F4F8" stroke="#0033A0" stroke-width="2"/>
      <text x="244" y="62" font-family="sans-serif" font-size="30" text-anchor="middle">🗣️</text>
      <text x="244" y="100" font-family="sans-serif" font-size="17" font-weight="bold" fill="#1A1A1A" text-anchor="middle">2. Скажи</text>
      <path d="M 314 70 H 326" stroke="#0033A0" stroke-width="3"/><polygon points="326,64 332,70 326,76" fill="#0033A0"/>
      <rect x="332" y="20" width="136" height="100" rx="10" fill="#F0F4F8" stroke="#0033A0" stroke-width="2"/>
      <text x="400" y="62" font-family="sans-serif" font-size="30" text-anchor="middle">⏹️</text>
      <text x="400" y="100" font-family="sans-serif" font-size="17" font-weight="bold" fill="#1A1A1A" text-anchor="middle">3. Зупини</text>
      <path d="M 470 70 H 482" stroke="#0033A0" stroke-width="3"/><polygon points="482,64 488,70 482,76" fill="#0033A0"/>
      <rect x="488" y="20" width="136" height="100" rx="10" fill="#F0F4F8" stroke="#0033A0" stroke-width="2"/>
      <text x="556" y="62" font-family="sans-serif" font-size="30" text-anchor="middle">👀</text>
      <text x="556" y="100" font-family="sans-serif" font-size="17" font-weight="bold" fill="#1A1A1A" text-anchor="middle">4. Прочитай</text>
      <path d="M 626 70 H 638" stroke="#0033A0" stroke-width="3"/><polygon points="638,64 644,70 638,76" fill="#0033A0"/>
      <rect x="644" y="20" width="136" height="100" rx="10" fill="#FFF9DB" stroke="#B38600" stroke-width="2"/>
      <text x="712" y="62" font-family="sans-serif" font-size="30" text-anchor="middle">✏️</text>
      <text x="712" y="100" font-family="sans-serif" font-size="17" font-weight="bold" fill="#1A1A1A" text-anchor="middle">5. Виправ</text>
    </svg>
